<svg width="40" height="48" viewBox="0 0 40 48" fill="none" xmlns="http://www.w3.org/2000/svg">
<path d="M19.2878 11.7286C19.2878 11.8876 19.1319 11.8876 19.1319 11.8876H18.9761C18.8202 11.8876 18.8202 11.7286 18.6644 11.5697C18.6644 11.5697 18.5085 11.4108 18.5085 11.2519C18.5085 11.0929 18.5085 11.0929 18.6644 11.0929L18.9761 11.2519C19.1319 11.4108 19.2878 11.5697 19.2878 11.7286ZM16.4825 10.1394C16.4825 9.34477 16.1708 8.868 15.7033 8.868C15.7033 8.868 15.7033 9.02692 15.5474 9.02692V9.34477H16.015C16.015 9.66261 16.1708 9.82154 16.1708 10.1394H16.4825ZM21.9372 9.34477C22.2489 9.34477 22.4047 9.66262 22.5606 10.1394H22.8723C22.7164 9.98047 22.7164 9.82154 22.7164 9.66261C22.7164 9.50369 22.7164 9.34477 22.5606 9.18584C22.4047 9.02692 22.2489 8.868 22.093 8.868C22.093 8.868 21.9372 9.02692 21.7813 9.02692C21.7813 9.18584 21.9372 9.18584 21.9372 9.34477ZM17.2617 11.8876C17.1059 11.8876 17.1059 11.8876 17.1059 11.7286C17.1059 11.5697 17.1059 11.4108 17.2617 11.2519C17.5734 11.2519 17.7293 11.0929 17.7293 11.0929C17.8851 11.0929 17.8851 11.2519 17.8851 11.2519C17.8851 11.4108 17.7293 11.5697 17.4176 11.8876H17.2617ZM15.5474 11.7286C14.924 11.4108 14.7682 10.934 14.7682 10.1394C14.7682 9.66262 14.7682 9.34477 15.0799 9.02692C15.2357 8.70907 15.5474 8.55015 15.8591 8.55015C16.1708 8.55015 16.3267 8.70907 16.6384 9.02692C16.7942 9.50369 16.9501 9.98047 16.9501 10.4572V10.6162V10.7751H17.1059V10.6162C17.2617 10.6162 17.2617 10.2983 17.2617 9.66261C17.2617 9.18584 17.2617 8.70907 16.9501 8.2323C16.6384 7.75552 16.3267 7.43767 15.7033 7.43767C15.2357 7.43767 14.7682 7.75552 14.6123 8.2323C14.3006 8.868 14.2383 9.34477 14.2383 10.1394C14.2383 10.7751 14.4565 11.4108 15.0799 12.0465C15.2357 11.8876 15.3916 11.8876 15.5474 11.7286ZM35.0284 34.137C35.1843 34.137 35.1843 34.0734 35.1843 33.9304C35.1843 33.5808 35.0284 33.1676 34.5609 32.7067C34.0933 32.2299 33.3141 31.928 32.379 31.8008C32.2232 31.7849 32.0673 31.7849 32.0673 31.7849C31.9115 31.7531 31.9115 31.7531 31.7556 31.7531C31.5998 31.7372 31.2881 31.7055 31.1322 31.6737C31.5998 30.1957 31.7556 28.8925 31.7556 27.7482C31.7556 26.159 31.4439 25.0465 30.8205 24.093C30.1971 23.1394 29.5738 22.6627 28.7945 22.5037C28.6387 22.6627 28.6387 22.6627 28.6387 22.8216C29.4179 23.1394 30.1971 23.7751 30.6647 24.7287C31.1322 25.8411 31.2881 26.7947 31.2881 27.9072C31.2881 28.7971 31.1322 30.1162 30.5088 31.8008C29.8855 32.0551 29.2621 32.6431 28.7945 33.5649C28.7945 33.7079 28.7945 33.7874 28.9504 33.7874C28.9504 33.7874 29.1062 33.6443 29.2621 33.3742C29.5738 33.104 29.7296 32.8338 30.0413 32.5637C30.5088 32.2935 30.8205 32.1504 31.2881 32.1504C32.0673 32.1504 32.8466 32.2617 33.3141 32.4842C33.9375 32.6908 34.2492 32.9133 34.4051 33.1676C34.5609 33.4059 34.7167 33.6284 34.8726 33.835C34.8726 34.0416 35.0284 34.137 35.0284 34.137ZM20.6904 11.0929C20.5346 10.934 20.5346 10.6162 20.5346 10.2983C20.5346 9.66261 20.5346 9.34477 20.8463 8.868C21.1579 8.55015 21.4697 8.39122 21.7813 8.39122C22.2489 8.39122 22.5606 8.70907 22.8723 9.02692C23.0281 9.50369 23.184 9.82154 23.184 10.2983C23.184 11.0929 22.8723 11.5697 22.2489 11.7286C22.2489 11.7286 22.4047 11.8876 22.5606 11.8876C22.8723 11.8876 23.0281 12.0465 23.3398 12.2054C23.4957 11.2519 23.6515 10.6162 23.6515 9.82154C23.6515 8.868 23.4957 8.23229 23.184 7.75552C22.7164 7.27875 22.2489 7.11982 21.6255 7.11982C21.158 7.11982 20.6904 7.27875 20.2229 7.5966C19.9112 8.07337 19.7553 8.39122 19.7553 8.868C19.7553 9.66262 19.9112 10.2983 20.2229 10.934C20.3787 10.934 20.5346 11.0929 20.6904 11.0929ZM22.5606 13.6357C20.5346 15.0661 18.9761 15.7017 17.7293 15.7017C16.6384 15.7017 15.5474 15.225 14.6123 14.4304C14.7682 14.7482 14.924 15.0661 15.0799 15.225L16.015 16.1785C16.6384 16.8142 17.4176 17.1321 18.1968 17.1321C19.2878 17.1321 20.5346 16.4964 22.093 15.3839L23.4957 14.4304C23.8074 14.1125 24.1191 13.7947 24.1191 13.3179C24.1191 13.159 24.1191 13 23.9632 13C23.8074 12.6822 23.0281 12.2054 21.4696 11.7286C20.067 11.0929 18.9761 10.7751 18.3527 10.7751C17.8851 10.7751 17.1059 11.0929 16.015 11.7286C15.0799 12.3643 14.4565 13 14.4565 13.6357C14.4565 13.6357 14.6123 13.7947 14.7682 14.1125C15.7033 14.9071 16.6384 15.3839 17.5734 15.3839C18.8202 15.3839 20.3787 14.7482 22.4047 13.159V13.4768C22.5606 13.4768 22.5606 13.6357 22.5606 13.6357ZM26.1451 45.7385C26.7685 46.9336 27.8594 47.5343 29.1062 47.5343C29.4179 47.5343 29.7296 47.4867 30.0413 47.3913C30.353 47.3278 30.6647 47.2165 30.8205 47.0894C30.9764 46.9781 31.1322 46.8669 31.2881 46.7397C31.5998 46.6285 31.5998 46.549 31.7556 46.4696L34.4051 44.1334C35.0284 43.6264 35.6518 43.183 36.4311 42.7984C37.0545 42.417 37.6779 42.1627 37.9896 42.0197C38.4571 41.8925 38.7688 41.7018 39.0805 41.4475C39.2363 41.2092 39.3922 40.9072 39.3922 40.5258C39.3922 40.0649 39.0805 39.7153 38.7688 39.461C38.4571 39.2067 38.1454 39.0319 37.8337 38.9206C37.522 38.8094 37.2103 38.5551 36.7428 38.126C36.4311 37.7128 36.1194 37.1407 35.9635 36.3937L35.8077 35.472C35.6518 35.0429 35.6518 34.725 35.496 34.5502C35.496 34.5025 35.496 34.4866 35.3401 34.4866C35.1843 34.4866 34.8726 34.6297 34.7167 34.8998C34.405 35.17 34.0934 35.472 33.7817 35.7898C33.6258 36.1077 33.1583 36.3937 32.8466 36.6639C32.379 36.9341 31.9115 37.0771 31.5998 37.0771C30.353 37.0771 29.7296 36.7275 29.2621 36.0441C28.9504 35.5355 28.7945 34.9475 28.6387 34.28C28.327 34.0099 28.1711 33.8668 27.8594 33.8668C27.0802 33.8668 26.7685 34.6932 26.7685 36.3619V36.8864V38.7299V40.1444V40.8277V41.3045C26.7685 41.4475 26.6126 41.7654 26.6126 42.2581C26.4568 42.7507 26.4568 43.3101 26.4568 43.9427L26.1451 45.7067V45.7337M3.5471 44.893C4.99649 45.1092 6.66407 45.5716 8.54983 46.2773C10.4356 46.9765 11.5889 47.342 12.0097 47.342C13.1006 47.342 14.0045 46.8494 14.7526 45.8974C14.9084 45.5891 14.9084 45.2268 14.9084 44.8104C14.9084 43.3085 14.0201 41.4094 12.2434 39.105L11.1837 37.6588C10.9655 37.3568 10.7005 36.8959 10.3577 36.2761C10.0304 35.6563 9.73428 35.1796 9.50051 34.8458C9.2979 34.4803 8.97062 34.1148 8.54983 33.7492C8.14463 33.3837 7.67708 33.1453 7.16278 33.0182C6.50822 33.1453 6.05626 33.3678 5.83807 33.6698C5.61988 33.9717 5.49521 34.3055 5.46404 34.6551C5.41729 34.9888 5.32377 35.2113 5.16793 35.3226C5.01208 35.4179 4.74713 35.4974 4.38868 35.5769C4.31076 35.5769 4.1705 35.5769 3.9679 35.5928H3.5471C2.72111 35.5928 2.16005 35.6881 1.86394 35.847C1.47432 36.3079 1.27172 36.8324 1.27172 37.3886C1.27172 37.6429 1.33406 38.072 1.45874 38.6759C1.58342 39.2639 1.64575 39.7407 1.64575 40.0744C1.64575 40.726 1.45874 41.3776 1.06912 42.0292C0.679497 42.7126 0.476895 43.2211 0.476895 43.5835C0.632743 44.2001 1.66134 44.634 3.5471 44.8883M8.73685 30.442C8.73685 29.3454 9.01738 28.1376 9.59401 26.7073C10.1551 25.277 10.7161 24.3234 11.2616 23.6877C11.2304 23.5288 11.1525 23.5288 11.0278 23.5288L10.872 23.3699C10.42 23.8466 9.87454 24.9591 9.21998 26.5484C8.56542 27.9787 8.22255 29.2978 8.22255 30.2672C8.22255 30.9824 8.39399 31.6022 8.70568 32.1425C9.04855 32.667 9.87454 33.4298 11.1837 34.3992L12.8357 35.4958C14.5967 37.0533 15.5318 38.134 15.5318 38.7697C15.5318 39.1034 15.376 39.4371 14.9084 39.8027C14.5967 40.1841 14.176 40.3748 13.8175 40.3748C13.7863 40.3748 13.7707 40.4066 13.7707 40.486C13.7707 40.5019 13.9266 40.8198 14.2539 41.4396C14.9084 42.3455 16.3111 42.7905 18.1813 42.7905C21.6099 42.7905 24.2593 41.3601 26.2854 38.4995C26.2854 37.7049 26.2854 37.2122 26.1295 37.0056V36.4176C26.1295 35.3846 26.2854 34.6058 26.5971 34.0973C26.9088 33.5887 27.2204 33.3503 27.688 33.3503C27.9997 33.3503 28.3114 33.4616 28.6231 33.7C28.7789 32.4762 28.7789 31.4114 28.7789 30.4579C28.7789 29.0117 28.7789 27.8198 28.4672 26.7073C28.3114 25.7537 27.9997 24.9591 27.688 24.3234C27.3763 23.8466 27.0646 23.3699 26.7529 22.8931C26.4412 22.4163 26.2854 21.9395 25.9737 21.4628C25.8178 20.8271 25.662 20.3503 25.662 19.5557C25.1944 18.761 24.8827 17.9664 24.4152 17.1718C24.1035 16.3772 23.7918 15.5826 23.4801 14.9469L22.0775 16.0593C20.519 17.1718 19.2722 17.6486 18.1813 17.6486C17.2462 17.6486 16.4669 17.4897 15.9994 16.854L15.0643 16.0593C15.0643 16.5361 14.9084 17.1718 14.5967 17.8075L13.6149 19.7146C13.1785 20.8271 12.9448 21.4628 12.898 21.9395C12.8357 22.2574 12.7889 22.5752 12.7577 22.5752L11.5889 24.9591C10.3265 27.343 9.68752 29.552 9.68752 31.3797C9.68752 31.7452 9.7187 32.1266 9.78104 32.508C9.07972 32.0154 8.73685 31.332 8.73685 30.442ZM19.8956 45.4763C17.8696 45.4763 16.3111 45.756 15.2201 46.3106V46.263C14.4409 47.2165 13.5681 47.7092 12.3525 47.7092C11.5889 47.7092 10.3888 47.4072 8.76802 46.8033C7.13161 46.2312 5.68222 45.7925 4.41985 45.5033C4.29518 45.4667 4.01465 45.4127 3.56269 45.3396C3.12631 45.2681 2.72111 45.195 2.36266 45.1219C2.03538 45.0504 1.66135 44.9423 1.25614 44.7961C0.866519 44.6705 0.554817 44.5068 0.321045 44.3082C0.105974 44.1079 0 43.8823 0 43.6296C0 43.3753 0.0529908 43.1035 0.158968 42.8143C0.25871 42.6395 0.367801 42.4646 0.476895 42.3057C0.585989 42.1309 0.6795 41.972 0.741839 41.8131C0.835348 41.67 0.897686 41.527 0.960025 41.3681C1.02236 41.225 1.08471 41.082 1.11588 40.9072C1.14704 40.7483 1.17821 40.5893 1.17821 40.4304C1.17821 40.2715 1.11588 39.7947 0.991196 38.9524C0.866518 38.126 0.804175 37.6016 0.804175 37.3791C0.804175 36.6798 0.960024 36.1236 1.30289 35.7262C1.64576 35.3289 1.97304 35.1223 2.31591 35.1223H4.10816C4.24842 35.1223 4.46661 35.0429 4.79389 34.8522C4.90298 34.5979 4.99649 34.3913 5.05883 34.2006C5.13676 34.0099 5.16793 33.8668 5.1991 33.8033C5.23027 33.7079 5.26144 33.6126 5.29261 33.5331C5.35494 33.4218 5.43287 33.2947 5.54196 33.1676C5.41728 33.0086 5.35494 32.802 5.35494 32.5478C5.35494 32.3729 5.35494 32.214 5.38611 32.1187C5.38611 31.5465 5.65105 30.736 6.21211 29.6712L6.75758 28.67C7.20954 27.8118 7.5524 27.1761 7.80176 26.5404C8.0667 25.9047 8.34723 24.9512 8.65893 23.6798C8.90828 22.5673 9.50051 21.4548 10.4356 20.3424L11.6045 18.912C12.4149 17.9585 12.9448 17.1639 13.2409 16.5282C13.537 15.8925 13.6928 15.0978 13.6928 14.4621C13.6928 14.1443 13.6149 13.1907 13.4435 11.6015C13.2876 10.0122 13.2097 8.423 13.2097 6.99268C13.2097 5.88021 13.3032 5.08559 13.5058 4.29097C13.7084 3.49634 14.0669 2.70172 14.5967 2.06602C15.0643 1.43032 15.6877 0.794627 16.6228 0.476777C17.5579 0.158928 18.6488 0 19.8956 0C20.3631 0 20.8307 3.57628e-06 21.2982 0.158928C21.7658 0.158928 22.3892 0.317849 23.1684 0.635698C23.7918 0.953547 24.4152 1.2714 24.8827 1.74817C25.5061 2.22495 25.9737 3.01957 26.4412 3.81419C26.7529 4.76774 27.0646 5.72128 27.2204 6.99268C27.3763 7.7873 27.3763 8.58193 27.5321 9.6944C27.5321 10.6479 27.688 11.2837 27.688 11.7604C27.8438 12.2372 27.8438 12.8729 27.9997 13.6675C28.1555 14.3032 28.3114 14.9389 28.6231 15.4157C28.9348 16.0514 29.2465 16.6871 29.714 17.3228C30.1816 18.1174 30.805 18.912 31.4283 19.8656C32.831 21.4548 33.9219 23.203 34.5453 24.9512C35.3246 26.5404 35.7921 28.6064 35.7921 30.8155C35.7921 31.9121 35.6362 32.9769 35.3246 34.0099C35.6362 34.0099 35.7921 34.137 35.9479 34.3595C36.1038 34.582 36.2596 35.0588 36.4155 35.8057L36.5713 36.9818C36.7272 37.3314 36.883 37.6651 37.3506 37.9512C37.6623 38.2373 37.974 38.4757 38.4415 38.6664C38.7532 38.8253 39.2208 39.0478 39.5325 39.3338C39.8442 39.6517 40 39.9854 40 40.3351C40 40.8754 39.8442 41.2727 39.5325 41.5588C39.2208 41.8766 38.9091 42.0991 38.4415 42.2422C38.1298 42.4011 37.5064 42.7189 36.5713 43.1671C35.7921 43.6375 35.0129 44.2081 34.2336 44.8835L32.6751 46.2359C32.0517 46.8557 31.4283 47.3007 30.9608 47.5709C30.4933 47.857 29.8699 48 29.2465 48L28.1555 47.8729C26.9088 47.5391 26.1295 46.9034 25.662 45.934C23.1684 45.6257 21.1424 45.4731 19.8956 45.4731" fill="white"/>
</svg>
